<svg width="29" height="29" viewBox="0 0 29 29" fill="none" xmlns="http://www.w3.org/2000/svg">
<path d="M25.311 11.0352C25.2988 10.1201 25.1275 9.21399 24.8047 8.35755C24.5248 7.63515 24.0973 6.97908 23.5494 6.43126C23.0016 5.88344 22.3456 5.45592 21.6232 5.17601C20.7777 4.85865 19.8846 4.68705 18.9817 4.66851C17.8193 4.61655 17.4508 4.60205 14.5 4.60205C11.5493 4.60205 11.1711 4.60205 10.0171 4.66851C9.11467 4.68718 8.22194 4.85878 7.3769 5.17601C6.65439 5.45573 5.99822 5.88318 5.45037 6.43102C4.90253 6.97887 4.47507 7.63504 4.19536 8.35755C3.87736 9.20234 3.70613 10.0953 3.68907 10.9978C3.63711 12.1614 3.6214 12.5299 3.6214 15.4807C3.6214 18.4314 3.6214 18.8084 3.68907 19.9636C3.70719 20.8674 3.87757 21.7592 4.19536 22.6062C4.47554 23.3285 4.90332 23.9844 5.45134 24.532C5.99937 25.0796 6.6556 25.5069 7.37811 25.7866C8.22084 26.1167 9.11372 26.3006 10.0183 26.3303C11.1819 26.3823 11.5505 26.398 14.5012 26.398C17.452 26.398 17.8302 26.398 18.9842 26.3303C19.887 26.3125 20.7802 26.1413 21.6256 25.824C22.3478 25.5438 23.0037 25.1161 23.5515 24.5684C24.0992 24.0206 24.5269 23.3647 24.8071 22.6425C25.1249 21.7966 25.2953 20.9049 25.3134 19.9998C25.3654 18.8374 25.3811 18.4689 25.3811 15.5169C25.3786 12.5662 25.3787 12.1916 25.311 11.0352V11.0352ZM14.4928 21.0608C11.4067 21.0608 8.90665 18.5607 8.90665 15.4746C8.90665 12.3886 11.4067 9.88851 14.4928 9.88851C15.9743 9.88851 17.3952 10.477 18.4428 11.5246C19.4904 12.5722 20.0789 13.9931 20.0789 15.4746C20.0789 16.9562 19.4904 18.377 18.4428 19.4246C17.3952 20.4722 15.9743 21.0608 14.4928 21.0608V21.0608ZM20.3012 10.9845C19.5799 10.9845 18.9986 10.4021 18.9986 9.68188C18.9986 9.51091 19.0323 9.3416 19.0978 9.18364C19.1632 9.02568 19.2591 8.88215 19.38 8.76125C19.5009 8.64035 19.6444 8.54444 19.8024 8.47901C19.9603 8.41358 20.1297 8.37991 20.3006 8.37991C20.4716 8.37991 20.6409 8.41358 20.7989 8.47901C20.9568 8.54444 21.1004 8.64035 21.2213 8.76125C21.3422 8.88215 21.4381 9.02568 21.5035 9.18364C21.5689 9.3416 21.6026 9.51091 21.6026 9.68188C21.6026 10.4021 21.0202 10.9845 20.3012 10.9845Z" fill="white"/>
<path d="M14.4928 19.1033C16.4968 19.1033 18.1214 17.4787 18.1214 15.4746C18.1214 13.4706 16.4968 11.846 14.4928 11.846C12.4887 11.846 10.8641 13.4706 10.8641 15.4746C10.8641 17.4787 12.4887 19.1033 14.4928 19.1033Z" fill="white"/>
</svg>
